@startuml
title State Diagram Sorgente

[*] --> Acceso: accensione

state Acceso {

    state "Generazione Previsioni" as GenPrev
    state "Aggiorna: Previsto -> Rientrato" as AggPrevCanc
    state "Aggiorna: InCorso -> Avvenuto" as AggCorAvv
    state "Sonno di Generazione delle Previsioni" as SonnoGen

    [*] --> GenPrev

    GenPrev: genera le previsioni per le prossime 24 ore
    GenPrev --> AggPrevCanc: Ci sono eventi previsti scaduti
    GenPrev --> AggCorAvv: Non ci sono eventi previsti scaduti,\nma ci sono eventi in corso scaduti
    GenPrev -right-> SonnoGen: Non ci sono eventi scaduti

    AggPrevCanc: Cambia lo stato degli eventi previsti scaduti in cancellati
    AggPrevCanc --> AggCorAvv: Ci sono eventi in corso scaduti
    AggPrevCanc --> SonnoGen: Non ci sono eventi in corso scaduti

    AggCorAvv: Cambia lo stato degli eventi in corso scaduti in avvenuti
    AggCorAvv --> SonnoGen

    SonnoGen: do/ aspetta 5 secondi
    SonnoGen -> GenPrev

    --

    state "Controllo Previsioni Urgenti o Immutabili" as ConPrevUrg
    state "Invio Eventi Urgenti o Immutabili" as InvioEvtUrg
    state "Sonno di Previsioni Urgenti o Immutabili" as SonnoPrevUrg

    [*] --> ConPrevUrg

    ConPrevUrg: controllo lista previsioni eventi
    ConPrevUrg --> InvioEvtUrg: ci sono previsioni urgenti o immutabili
    ConPrevUrg --> SonnoPrevUrg: non ci sono previsioni urgenti o immutabili

    InvioEvtUrg: do/ invio eventi urgenti o immutabili al sistema centrale
    InvioEvtUrg: do/ tolgo previsioni immutabili dalla lista previsioni
    InvioEvtUrg --> SonnoPrevUrg

    SonnoPrevUrg: do/ aspetta 5 secondi
    SonnoPrevUrg --> ConPrevUrg

    ---

    state "Invio Previsioni" as InvPrev
    state "Sonno di Previsioni" as SonnoPrev

    [*] -right-> InvPrev: \t\t\t

    InvPrev: Invio previsioni al sistema centrale
    InvPrev -right-> SonnoPrev: \t\t\t

    SonnoPrev: do/ aspetta 4 ore
    SonnoPrev -left-> InvPrev: \t\t\t

}

Acceso --> [*]: spegnimento
@enduml
