@startuml
title Class Diagram
package source {
    interface Previsioni<<interface>> {
        + getPrevisioni() : Set<Evento>
        + rimuoviPrevisioni(Set<Event>)
    }

    class PrevisioniATempo {
        - previsioni24H: Set<Evento>
        - timer: Timer [1]
        + getPrevisioni() : Set<Evento>
        + rimuoviPrevisioni(Event)
        - generaPrevisioni()
    }

    class Sorgente {
        - id: integer [1]
        - timer: Timer [1]
        + inviaPrevisioni(Set<Evento>)
    }
    note bottom of Sorgente: Il timer esegue due azioni allo scadere\ndi 2 intervalli differenti\n1 - ogni 4h viene chiamato il metodo\n     "InviaPrevisioni(Previsioni.getPrevisioni())".\n2 - ogni 5sec vengono inviati e cancellati\n     dalla lista previsioni gli eventi immutabili\n     e vengono inviati e non cancellati(necessari\n     per gestire il passaggio a terminato)\n     quelli InCorso\n\n\nGli eventi immutabili sono quelli passati e nello\nstato Avvenuto o Cancellato
    note bottom of PrevisioniATempo: Il timer ha una durata di 5sec e allo scadere,\nviene chiamato il metodo "GeneraPrevisioni()".\nGli eventi generati vengono inseriti nella lista\nPrevisioni24h. Se il tempo < now (passato),\nmodifica lo stato (previsto to cancellato).\nSe l'evento è in corso ed è passato un tempo minimo,\nmodifica lo stato (InCorso to avvenuto)\n

    Previsioni "1" <- Sorgente : \t\t\t
    Previsioni <|.. PrevisioniATempo
}

package server{
    class ArchivioEventiImpl {
        - JDBCurl: String  [1]
        + storeEventi(Set<Evento>)
        + getEventi(FiltroRicerca): Set<Evento> {query}
    }

    class "UnicastRemoteObject\n(from rmi.ArchivioEventi)" as UnicastRemoteObject

    ArchivioEventiImpl -|> UnicastRemoteObject :\t
}

package user {
    class Utente {
        - capPreferiti: Set<String> [0..1]
        + addCapPreferiti(Set<String>)
        + clearCapPreferiti()
        + getAllarmiInEvidenza(): SortedSet<Evento> {query} {ordered}
        + effettuaRicerca(FiltroRicerca): SortedSet<Evento> {query} {ordered}
    }

    abstract Notificatore {
        - eventiNotificati: Set<Evento>
        # getEventi: Set<Evento>
        # inviaEventiDaNotificare(Set<Evento>)
    }

    class NotificatoreATempo {
        - timer: Timer
        - controllaPrevisioni()
    }
    note bottom of NotificatoreATempo: Il timer ha una durata di 10sec\ne al suo scadere, viene\neffettuata una query delle previsioni\ncon i cap preferiti dell'utente.\nSe gli eventi ottenuti non sono\ncontenuti nella lista "eventiNotificati",\nvengono inviati al visualizzatore,\nattraverso inviaEventiDaNotificare e quindi,\nvisualizza dell'interfaccia VisualizzaNotifica\ne, in caso di corretta recezione, inseriti\nnella lista "evntiNotificati"

    class Caps {
        - {static} caps: Map<String, Map<String, Set<String>>>
        + {static} filtra(String comune, String provincia) : Set<String>
        + {static} getProvince(): Set<String>
        + {static} getComuni(String provincia): Set<String>
    }

    Utente " 1" <- Notificatore :\t
    Notificatore <|-- NotificatoreATempo

    package gui {
        package components  {
            class TabellaEventi
            class Impostazioni
            class CercaEventi
            class AllarmiInEveidenza
        }

        class FinestraGUI

        interface VisualizzatoreNotificaEvento {
            + visualizzaNotifica(Evento)
        }

        components <. FinestraGUI 
        FinestraGUI .|> VisualizzatoreNotificaEvento: \t\t
    }

    VisualizzatoreNotificaEvento "\n\n1" <-- Notificatore
    FinestraGUI --> "\n\n\n1" Utente
}

package common {
    interface ArchivioEventi<<interface>> {
        + storeEventi(Set<Evento>)
        + getEventi(FiltroRicerca): Set<Evento> {query}
    }

    interface "Remote (from RMI)" as Remote <<interface>>
    ArchivioEventi --|> Remote

    enum StatoEvento {
        Previsto
        InCorso
        Accaduto
        Rientrato
    }

    class Evento {
        - id: integer [1]
        - cap: String  [1]
        - sorgente: integer [1]
        - messaggio: String [0..1]
        - tipo: String [0..1]
        - istanteTemporale: LocalDateTime [1]
        - gravità: integer [1]
    }

    StatoEvento "1" <- Evento: \tÈ\t

    class FiltroRicerca {
        - listaCAP: Set<String> [1]
        - tipo:String [0..1]
        - massimoPericolo: Boolean [1] {false}
        - previstoDal: LocalDateTime [0..1]
        - previstoAl: LocalDateTime [0..1]
    }
}

Sorgente .> ArchivioEventi
ArchivioEventiImpl ..|> ArchivioEventi
ArchivioEventi <. Utente

'Layout only
hide empty members
skinparam classAttributeIconSize 0
Sorgente -[hidden]--- StatoEvento
Notificatore .[hidden].> FiltroRicerca
Caps -[hidden]> NotificatoreATempo: \t
Remote -[hidden]-> FiltroRicerca
Remote -[hidden]-> Evento
CercaEventi -[hidden]-> Utente
Impostazioni -[hidden]-> CercaEventi
AllarmiInEveidenza -[hidden]-> TabellaEventi
@enduml